<svg width="163" height="34" viewBox="0 0 163 34" fill="none" xmlns="http://www.w3.org/2000/svg">
<path fill-rule="evenodd" clip-rule="evenodd" d="M8.82988 2.44779C2.67649 6.93431 -1.57029 16.5204 0.553938 24.2934C1.40049 27.3908 3.16159 30.0786 6.0244 31.7894C13.7124 36.3836 24.0074 32.8201 26.3998 24.483C28.6361 16.6898 24.3312 6.96932 18.326 2.60808C15.1857 0.327229 11.9658 0.161272 8.82988 2.44779ZM5.01087 17.6018V22.3495H6.41965C7.06157 22.3495 7.58356 22.128 7.98923 21.6847C8.3931 21.2432 8.59606 20.6717 8.59606 19.9718C8.59606 19.2739 8.3931 18.7042 7.98923 18.2629C7.58356 17.8215 7.06157 17.6018 6.41965 17.6018H5.01087ZM3.11866 23.9593V15.992H5.95524C6.76645 15.992 7.39552 16.0561 7.8418 16.1864C8.28808 16.3148 8.69941 16.5266 9.07345 16.824C9.55676 17.2072 9.92193 17.666 10.1709 18.1985C10.4199 18.7314 10.5434 19.3242 10.5434 19.9718C10.5434 20.6834 10.3923 21.3268 10.0899 21.9063C9.78735 22.4855 9.34852 22.9679 8.77678 23.3547C8.45223 23.5724 8.09438 23.726 7.70144 23.8194C7.30875 23.9126 6.72596 23.9593 5.95524 23.9593H3.11866ZM11.3294 23.9593V15.992H16.386V17.4618H13.2215V19.0833H16.2422V20.5648H13.2215V22.4662H16.4747V23.9593H11.3294ZM20.493 24.0292L17.0628 15.992H19.0879L20.9561 20.6231L22.9495 15.992H24.9968L21.312 24.0292H20.493Z" fill="#D448B5"/>
<path d="M38.3574 26.0033V10.2241H42.0115V26.0033H38.3574ZM48.3818 16.0882V26.0033H44.8734V10.2241H47.9838L55.586 19.6308V10.2241H59.0949V26.0033H56.3163L48.3818 16.0882ZM74.289 24.6789C73.4376 25.2218 72.5658 25.622 71.6732 25.8877C70.7803 26.1494 69.8424 26.2806 68.8634 26.2806C67.7562 26.2806 66.7352 26.092 65.8079 25.7182C64.877 25.3412 64.0642 24.7868 63.3684 24.0589C62.6521 23.3001 62.1053 22.4107 61.7318 21.3982C61.3546 20.3816 61.1676 19.292 61.1676 18.1254C61.1676 15.6726 61.9013 13.6973 63.3718 12.1955C64.8425 10.6978 66.7837 9.94678 69.1953 9.94678C70.0609 9.94678 70.9047 10.0507 71.725 10.2625C72.5489 10.4742 73.3616 10.7979 74.1645 11.233V14.9372C73.3821 14.371 72.5935 13.9475 71.8046 13.6703C71.0123 13.3891 70.2229 13.2507 69.4307 13.2507C68.0017 13.2507 66.8737 13.6819 66.0535 14.5482C65.2337 15.4145 64.822 16.6043 64.822 18.1254C64.822 19.6002 65.2129 20.7784 65.9985 21.656C66.7801 22.5378 67.8355 22.9767 69.161 22.9767C70.0119 22.9767 70.8666 22.8113 71.725 22.4763C72.5829 22.1415 73.4376 21.6447 74.289 20.9901V24.6789ZM89.6974 10.2241V19.2572C89.6974 21.4674 89.1092 23.1885 87.9293 24.4245C86.7492 25.6608 85.1022 26.2806 82.9878 26.2806C80.8775 26.2806 79.2334 25.6608 78.0535 24.4245C76.8739 23.1885 76.2857 21.4674 76.2857 19.2572V10.2241H79.8566V19.0995C79.8566 20.3549 80.1262 21.3135 80.6665 21.9794C81.2057 22.6456 81.9915 22.9767 83.0158 22.9767C84.0367 22.9767 84.815 22.6456 85.3482 21.9833C85.8805 21.3251 86.147 20.3623 86.147 19.0995V10.2241H89.6974ZM95.9673 23.1156H98.0229C98.9435 23.1156 99.5971 22.9728 99.9883 22.6883C100.379 22.3993 100.577 21.9259 100.577 21.2672C100.577 20.5895 100.369 20.0888 99.9538 19.7654C99.5385 19.442 98.888 19.2806 98.0022 19.2806H95.9673V23.1156ZM97.8015 16.4617C98.4416 16.4617 98.9189 16.3272 99.2341 16.0537C99.5491 15.7843 99.7046 15.3762 99.7046 14.8256C99.7046 14.2171 99.5455 13.7625 99.2271 13.4663C98.9124 13.1697 98.4346 13.0194 97.8015 13.0194H95.9673V16.4617H97.8015ZM92.3965 26.0033V10.2241H97.6283C99.4936 10.2241 100.902 10.5627 101.85 11.2446C102.802 11.9259 103.276 12.935 103.276 14.2747C103.276 14.9717 103.116 15.5841 102.795 16.1115C102.473 16.639 102.002 17.055 101.39 17.3628C102.379 17.7094 103.12 18.2216 103.604 18.903C104.092 19.5845 104.334 20.4434 104.334 21.479C104.334 22.9924 103.867 24.1242 102.936 24.875C102.006 25.6258 100.604 26.0033 98.7322 26.0033H92.3965ZM110.559 20.2275H114.747L112.76 14.2209L110.559 20.2275ZM104.622 26.0033L110.805 10.2241H114.899L120.421 26.0033H116.66L115.646 22.9306H109.535L108.4 26.0033H104.622ZM123.712 26.0033V13.1583H119.02V10.2241H132.141V13.1583H127.449V26.0033H123.712ZM136.626 18.1254C136.626 19.5307 137.006 20.6896 137.764 21.5943C138.525 22.4994 139.494 22.9536 140.671 22.9536C141.851 22.9536 142.823 22.4994 143.584 21.5943C144.342 20.6896 144.723 19.5307 144.723 18.1254C144.723 16.7121 144.342 15.5491 143.584 14.6406C142.823 13.728 141.851 13.2736 140.671 13.2736C139.494 13.2736 138.525 13.728 137.764 14.6406C137.006 15.5491 136.626 16.7121 136.626 18.1254ZM132.971 18.1254C132.971 16.9511 133.158 15.8687 133.529 14.8717C133.902 13.8744 134.456 12.9849 135.193 12.2032C135.909 11.4525 136.723 10.89 137.632 10.5244C138.543 10.1547 139.553 9.96993 140.671 9.96993C141.799 9.96993 142.819 10.1547 143.733 10.5283C144.647 10.9018 145.46 11.4602 146.176 12.2032C146.906 12.9849 147.46 13.8744 147.833 14.8717C148.211 15.8687 148.397 16.9511 148.397 18.1254C148.397 19.292 148.211 20.37 147.833 21.3673C147.46 22.3648 146.906 23.2463 146.176 24.0126C145.453 24.7634 144.633 25.3296 143.716 25.7105C142.802 26.092 141.785 26.2806 140.671 26.2806C139.56 26.2806 138.553 26.092 137.643 25.7182C136.733 25.3412 135.916 24.7711 135.193 24.0126C134.463 23.2463 133.909 22.3648 133.536 21.3673C133.158 20.37 132.971 19.292 132.971 18.1254ZM155.813 16.6928C156.47 16.6928 156.958 16.5389 157.28 16.2348C157.602 15.9304 157.761 15.4686 157.761 14.8446C157.761 14.2516 157.595 13.7974 157.259 13.4853C156.923 13.1735 156.442 13.0194 155.813 13.0194H154.107V16.6928H155.813ZM150.557 26.0033V10.2241H155.792C157.716 10.2241 159.138 10.5977 160.058 11.3408C160.975 12.0839 161.436 13.2391 161.436 14.8022C161.436 15.6726 161.232 16.4195 160.826 17.0394C160.422 17.6592 159.803 18.183 158.965 18.6104C159.318 18.7529 159.633 18.9917 159.913 19.3265C160.194 19.6615 160.436 20.085 160.646 20.5972L162.91 26.0033H158.906L157.1 21.4558C156.809 20.7318 156.477 20.2355 156.107 19.9658C155.733 19.6923 155.207 19.5575 154.522 19.5575C154.47 19.5575 154.398 19.5614 154.311 19.5691C154.221 19.5768 154.155 19.5807 154.107 19.5807V26.0033H150.557Z" fill="#D448B5"/>
</svg>
